<svg width="324" height="514" xmlns="http://www.w3.org/2000/svg">
 <g id="Layer_1">
  <title>Layer 1</title>
  <rect id="svg_2" height="43" width="0" y="115.69659" x="93.67339" stroke="#000" fill="#fff"/>
  <rect transform="rotate(-8 161.807 258.841)" stroke="#000" rx="20" id="svg_7" height="459.55279" width="246.36918" y="29.0641" x="38.62241" fill="#ffffff"/>
  <rect transform="rotate(-8 162.503 264.843)" stroke="#000" rx="12" id="svg_26" height="404" width="208.2142" y="62.84344" x="58.39638" fill="#3b3c47"/>
  <path transform="rotate(-8 162.213 264.565)" stroke="#000" id="svg_3" d="m258.23747,62.65239l-3.86026,0c6.29275,0 11.58077,4.63887 11.58077,10.15913l0,383.50703c0,5.52026 -5.28802,10.15913 -11.58077,10.15913l-184.32728,0c-6.29275,0 -11.58077,-4.63887 -11.58077,-10.15913l199.76831,-393.66615z" opacity="undefined" fill="#212333"/>
  <ellipse stroke="#000" ry="8.57143" rx="8.57143" id="svg_12" cy="54.92473" cx="70.31737" fill="#898989"/>
  <ellipse stroke="#000" ry="12.77778" rx="12.77778" id="svg_13" cy="443.59621" cx="198.48232" fill="#585a60"/>
  <path transform="rotate(-8 163.062 246.768)" id="svg_14" d="m220.36377,235.60392c0.12308,-1.41919 0.19434,-2.85294 0.19434,-4.30124c0,-25.1233 -18.12553,-45.48685 -40.4877,-45.48685c-17.35465,0 -32.11808,12.29237 -37.87705,29.54098c-3.81556,-4.70152 -9.25711,-7.70729 -15.36589,-7.70729c-11.51794,0 -20.85278,10.48745 -20.85278,23.42755c0,1.52836 0.14899,3.02033 0.40164,4.46135c-15.36589,2.84566 -27.12352,17.72896 -27.12352,35.79269c0,20.10155 14.50431,36.38948 32.39016,36.38948l102.83875,0c17.89232,0 32.39016,-16.28793 32.39016,-36.38948c0.00648,-17.83812 -11.43373,-32.61225 -26.5081,-35.72719z" stroke="#000" fill="#ffffff"/>
 </g>

</svg>