<?xml version="1.0" encoding="iso-8859-1"?>
<!-- Generator: Adobe Illustrator 19.0.0, SVG Export Plug-In . SVG Version: 6.00 Build 0)  -->
<svg version="1.1" id="Layer_1" xmlns="http://www.w3.org/2000/svg" xmlns:xlink="http://www.w3.org/1999/xlink" x="0px" y="0px"
	 viewBox="0 0 495 495" style="enable-background:new 0 0 495 495;" xml:space="preserve">
<g>
	<polygon style="fill:#2488FF;" points="207.5,435 207.5,395 247.5,395 247.5,335 87.5,335 87.5,495 247.5,495 247.5,435 	"/>
	<rect x="87.5" style="fill:#2488FF;" width="160" height="70"/>
	<polygon style="fill:#005ECE;" points="247.5,395 287.5,395 287.5,435 247.5,435 247.5,495 407.5,495 407.5,335 247.5,335 	"/>
	<rect x="247.5" style="fill:#005ECE;" width="160" height="70"/>
	<path style="fill:#00E7F0;" d="M247.5,222.5c-11.046,0-20-8.954-20-20s8.954-20,20-20V70h-160v265h160V222.5z M187.5,222.5
		c-11.046,0-20-8.954-20-20s8.954-20,20-20s20,8.954,20,20S198.546,222.5,187.5,222.5z"/>
	<path style="fill:#00D7DF;" d="M247.5,182.5c11.046,0,20,8.954,20,20s-8.954,20-20,20V335h160V70h-160V182.5z M307.5,182.5
		c11.046,0,20,8.954,20,20s-8.954,20-20,20s-20-8.954-20-20S296.454,182.5,307.5,182.5z"/>
	<polygon style="fill:#FFDA44;" points="207.5,435 247.5,435 287.5,435 287.5,395 247.5,395 207.5,395 	"/>
	<circle style="fill:#2488FF;" cx="307.5" cy="202.5" r="20"/>
	<circle style="fill:#2488FF;" cx="187.5" cy="202.5" r="20"/>
	<circle style="fill:#2488FF;" cx="247.5" cy="202.5" r="20"/>
</g>
<g>
</g>
<g>
</g>
<g>
</g>
<g>
</g>
<g>
</g>
<g>
</g>
<g>
</g>
<g>
</g>
<g>
</g>
<g>
</g>
<g>
</g>
<g>
</g>
<g>
</g>
<g>
</g>
<g>
</g>
</svg>
